<?xml version="1.0" encoding="UTF-8"?>
<svg width="600" height="400" viewBox="0 0 600 400" fill="none" xmlns="http://www.w3.org/2000/svg">
  <!-- Background -->
  <rect width="600" height="400" rx="20" fill="#FFFFFF" />
  
  <!-- Decorative circles -->
  <circle cx="300" cy="200" r="150" fill="#F5F5F5" opacity="0.7" />
  <circle cx="300" cy="200" r="120" fill="#F5F5F5" opacity="0.7" />
  
  <!-- Talent search concept -->
  <circle cx="200" cy="150" r="30" fill="#A0A0A0" />
  <circle cx="280" cy="180" r="30" fill="#A0A0A0" />
  <circle cx="350" cy="130" r="30" fill="#A0A0A0" />
  <circle cx="400" cy="190" r="30" fill="#A0A0A0" />
  <circle cx="250" cy="250" r="30" fill="#A0A0A0" />
  <circle cx="330" cy="270" r="30" fill="#A0A0A0" />

  <!-- Highlight selected talent -->
  <circle cx="280" cy="180" r="40" stroke="url(#goldGradient)" stroke-width="3" fill="none" />
  <circle cx="280" cy="180" r="30" fill="#333333" />
  
  <!-- Person icon in highlighted circle -->
  <circle cx="280" cy="165" r="10" fill="url(#goldGradient)" />
  <path d="M260 195 L260 185 C260 175 300 175 300 185 L300 195" stroke="url(#goldGradient)" stroke-width="3" fill="none" />
  
  <!-- Connection lines between talents -->
  <line x1="200" y1="150" x2="280" y2="180" stroke="#A0A0A0" stroke-width="2" />
  <line x1="280" y1="180" x2="350" y2="130" stroke="#A0A0A0" stroke-width="2" />
  <line x1="280" y1="180" x2="400" y2="190" stroke="#A0A0A0" stroke-width="2" />
  <line x1="280" y1="180" x2="250" y2="250" stroke="#A0A0A0" stroke-width="2" />
  <line x1="280" y1="180" x2="330" y2="270" stroke="#A0A0A0" stroke-width="2" />
  
  <!-- Magnifying glass -->
  <circle cx="420" cy="260" r="40" stroke="#D4AF37" stroke-width="6" fill="none" />
  <line x1="395" y1="285" x2="370" y2="310" stroke="#D4AF37" stroke-width="6" />
  
  <!-- Stars to indicate quality -->
  <path d="M280 110 L285 125 L300 125 L290 135 L295 150 L280 140 L265 150 L270 135 L260 125 L275 125 Z" fill="#D4AF37" />
  <path d="M180 240 L183 250 L193 250 L186 255 L189 265 L180 260 L171 265 L174 255 L167 250 L177 250 Z" fill="#D4AF37" />
  <path d="M380 240 L383 250 L393 250 L386 255 L389 265 L380 260 L371 265 L374 255 L367 250 L377 250 Z" fill="#D4AF37" />
  
  <!-- Definitions -->
  <defs>
    <linearGradient id="goldGradient" x1="0%" y1="0%" x2="100%" y2="100%">
      <stop offset="0%" stop-color="#FFD700" />
      <stop offset="100%" stop-color="#FFA500" />
    </linearGradient>
  </defs>
</svg>