<svg xmlns="http://www.w3.org/2000/svg" viewBox="0 0 200 200" width="200" height="200">
  <!-- Planning & Research Phase -->
  <style>
    .stroke-primary { stroke: #FFD700; }
    .fill-primary { fill: #FFD700; }
    .stroke-secondary { stroke: #FFFFFF; }
    .fill-secondary { fill: #FFFFFF; }
    .stroke-dark { stroke: #333333; }
    .fill-dark { fill: #333333; }
    .stroke-width-2 { stroke-width: 2; }
    .stroke-width-3 { stroke-width: 3; }
    .stroke-linecap-round { stroke-linecap: round; }
    .stroke-linejoin-round { stroke-linejoin: round; }
  </style>
  
  <!-- Blueprint/Planning Background -->
  <rect x="20" y="20" width="160" height="160" rx="5" class="stroke-primary stroke-width-2" fill="rgba(255, 215, 0, 0.1)" />
  
  <!-- Grid Lines -->
  <g stroke="rgba(255, 215, 0, 0.3)" stroke-width="0.5">
    <line x1="20" y1="50" x2="180" y2="50" />
    <line x1="20" y1="80" x2="180" y2="80" />
    <line x1="20" y1="110" x2="180" y2="110" />
    <line x1="20" y1="140" x2="180" y2="140" />
    <line x1="50" y1="20" x2="50" y2="180" />
    <line x1="80" y1="20" x2="80" y2="180" />
    <line x1="110" y1="20" x2="110" y2="180" />
    <line x1="140" y1="20" x2="140" y2="180" />
  </g>
  
  <!-- Compass -->
  <circle cx="150" cy="50" r="15" fill="rgba(255, 255, 255, 0.1)" class="stroke-primary stroke-width-2" />
  <line x1="150" y1="35" x2="150" y2="65" class="stroke-primary stroke-width-2" />
  <line x1="135" y1="50" x2="165" y2="50" class="stroke-primary stroke-width-2" />
  <polygon points="150,35 147,45 153,45" class="fill-primary" />
  
  <!-- Magnifying Glass -->
  <circle cx="60" cy="110" r="25" fill="none" class="stroke-primary stroke-width-2" />
  <line x1="78" y1="128" x2="95" y2="145" class="stroke-primary stroke-width-3 stroke-linecap-round" />
  
  <!-- Document/Research Notes -->
  <rect x="110" y="90" width="40" height="50" fill="rgba(255, 255, 255, 0.2)" class="stroke-primary stroke-width-2" />
  <line x1="120" y1="100" x2="140" y2="100" class="stroke-primary stroke-width-2" />
  <line x1="120" y1="110" x2="140" y2="110" class="stroke-primary stroke-width-2" />
  <line x1="120" y1="120" x2="130" y2="120" class="stroke-primary stroke-width-2" />
  
  <!-- Pencil -->
  <line x1="40" y1="150" x2="70" y2="170" class="stroke-primary stroke-width-3 stroke-linecap-round" />
  <polygon points="70,170 75,165 72,175" class="fill-primary" />
</svg>