<svg xmlns="http://www.w3.org/2000/svg" viewBox="0 0 200 200" width="200" height="200">
  <!-- Completion & Delivery Phase -->
  <style>
    .stroke-primary { stroke: #FFD700; }
    .fill-primary { fill: #FFD700; }
    .stroke-secondary { stroke: #FFFFFF; }
    .fill-secondary { fill: #FFFFFF; }
    .stroke-green { stroke: #10B981; }
    .fill-green { fill: #10B981; }
    .stroke-width-2 { stroke-width: 2; }
    .stroke-width-3 { stroke-width: 3; }
    .stroke-linecap-round { stroke-linecap: round; }
    .stroke-linejoin-round { stroke-linejoin: round; }
  </style>
  
  <!-- Circular Completion Background -->
  <circle cx="100" cy="100" r="75" fill="rgba(16, 185, 129, 0.1)" class="stroke-green stroke-width-2" />
  
  <!-- Checkmark -->
  <path d="M70 100 L90 120 L130 80" fill="none" class="stroke-green stroke-width-3 stroke-linecap-round stroke-linejoin-round" />
  
  <!-- Trophy -->
  <path d="M100 40 L100 60" class="stroke-primary stroke-width-2" />
  <path d="M85 60 L115 60 L115 90 Q115 100, 100 105 Q85 100, 85 90 Z" fill="rgba(255, 215, 0, 0.3)" class="stroke-primary stroke-width-2" />
  <path d="M85 60 L75 60 Q70 60, 70 65 L70 75 Q70 85, 80 85 Q85 85, 85 75" fill="none" class="stroke-primary stroke-width-2" />
  <path d="M115 60 L125 60 Q130 60, 130 65 L130 75 Q130 85, 120 85 Q115 85, 115 75" fill="none" class="stroke-primary stroke-width-2" />
  <rect x="95" y="105" width="10" height="15" fill="rgba(255, 215, 0, 0.3)" class="stroke-primary stroke-width-1" />
  <rect x="90" y="120" width="20" height="5" rx="2" fill="rgba(255, 215, 0, 0.3)" class="stroke-primary stroke-width-1" />
  
  <!-- Stars -->
  <path d="M50 40 L53 47 L60 48 L55 53 L56 60 L50 57 L44 60 L45 53 L40 48 L47 47 Z" class="fill-primary stroke-primary stroke-width-1" />
  <path d="M150 40 L153 47 L160 48 L155 53 L156 60 L150 57 L144 60 L145 53 L140 48 L147 47 Z" class="fill-primary stroke-primary stroke-width-1" />
  <path d="M50 150 L53 157 L60 158 L55 163 L56 170 L50 167 L44 170 L45 163 L40 158 L47 157 Z" class="fill-primary stroke-primary stroke-width-1" />
  <path d="M150 150 L153 157 L160 158 L155 163 L156 170 L150 167 L144 170 L145 163 L140 158 L147 157 Z" class="fill-primary stroke-primary stroke-width-1" />
  
  <!-- Ribbon/Banner -->
  <path d="M85 140 Q100 130, 115 140 L115 155 Q100 145, 85 155 Z" fill="rgba(16, 185, 129, 0.3)" class="stroke-green stroke-width-2" />
  
  <!-- Confetti -->
  <circle cx="40" cy="80" r="3" class="fill-primary" />
  <circle cx="160" cy="80" r="3" class="fill-primary" />
  <circle cx="60" cy="120" r="3" class="fill-green" />
  <circle cx="140" cy="120" r="3" class="fill-green" />
  <rect x="30" y="100" width="5" height="5" transform="rotate(45, 32.5, 102.5)" class="fill-primary" />
  <rect x="165" y="100" width="5" height="5" transform="rotate(45, 167.5, 102.5)" class="fill-primary" />
</svg>