<svg xmlns="http://www.w3.org/2000/svg" viewBox="0 0 200 200" width="200" height="200">
  <!-- Development & Implementation Phase -->
  <style>
    .stroke-primary { stroke: #FFD700; }
    .fill-primary { fill: #FFD700; }
    .stroke-secondary { stroke: #FFFFFF; }
    .fill-secondary { fill: #FFFFFF; }
    .stroke-blue { stroke: #3B82F6; }
    .fill-blue { fill: #3B82F6; }
    .stroke-width-2 { stroke-width: 2; }
    .stroke-width-3 { stroke-width: 3; }
    .stroke-linecap-round { stroke-linecap: round; }
    .stroke-linejoin-round { stroke-linejoin: round; }
  </style>
  
  <!-- Code Window Background -->
  <rect x="25" y="25" width="150" height="120" rx="5" fill="rgba(59, 130, 246, 0.1)" class="stroke-blue stroke-width-2" />
  
  <!-- Window Header -->
  <rect x="25" y="25" width="150" height="20" rx="5" fill="rgba(59, 130, 246, 0.3)" class="stroke-blue stroke-width-2" />
  <circle cx="35" cy="35" r="3" class="fill-primary" />
  <circle cx="45" cy="35" r="3" fill="rgba(255, 255, 255, 0.5)" />
  <circle cx="55" cy="35" r="3" fill="rgba(255, 255, 255, 0.5)" />
  
  <!-- Code Lines -->
  <line x1="35" y1="60" x2="165" y2="60" stroke="rgba(255, 255, 255, 0.2)" stroke-width="1" />
  <line x1="35" y1="75" x2="145" y2="75" stroke="rgba(255, 255, 255, 0.2)" stroke-width="1" />
  <line x1="35" y1="90" x2="155" y2="90" stroke="rgba(255, 255, 255, 0.2)" stroke-width="1" />
  <line x1="35" y1="105" x2="125" y2="105" stroke="rgba(255, 255, 255, 0.2)" stroke-width="1" />
  <line x1="35" y1="120" x2="165" y2="120" stroke="rgba(255, 255, 255, 0.2)" stroke-width="1" />
  
  <!-- Brackets and Code Symbols -->
  <path d="M40 55 L35 60 L40 65" fill="none" class="stroke-primary stroke-width-2 stroke-linecap-round stroke-linejoin-round" />
  <path d="M50 55 L55 60 L50 65" fill="none" class="stroke-primary stroke-width-2 stroke-linecap-round stroke-linejoin-round" />
  <path d="M65 55 L70 65" fill="none" class="stroke-primary stroke-width-2 stroke-linecap-round stroke-linejoin-round" />
  
  <!-- Gear/Cog for Development -->
  <circle cx="140" cy="150" r="20" fill="rgba(59, 130, 246, 0.2)" class="stroke-blue stroke-width-2" />
  <circle cx="140" cy="150" r="10" fill="none" class="stroke-blue stroke-width-2" />
  
  <!-- Gear Teeth -->
  <line x1="140" y1="130" x2="140" y2="125" class="stroke-blue stroke-width-2 stroke-linecap-round" />
  <line x1="140" y1="170" x2="140" y2="175" class="stroke-blue stroke-width-2 stroke-linecap-round" />
  <line x1="120" y1="150" x2="115" y2="150" class="stroke-blue stroke-width-2 stroke-linecap-round" />
  <line x1="160" y1="150" x2="165" y2="150" class="stroke-blue stroke-width-2 stroke-linecap-round" />
  <line x1="126" y1="136" x2="122" y2="132" class="stroke-blue stroke-width-2 stroke-linecap-round" />
  <line x1="154" y1="164" x2="158" y2="168" class="stroke-blue stroke-width-2 stroke-linecap-round" />
  <line x1="126" y1="164" x2="122" y2="168" class="stroke-blue stroke-width-2 stroke-linecap-round" />
  <line x1="154" y1="136" x2="158" y2="132" class="stroke-blue stroke-width-2 stroke-linecap-round" />
  
  <!-- Tools -->
  <rect x="40" y="140" width="30" height="10" rx="2" class="fill-primary stroke-primary stroke-width-1" />
  <rect x="45" y="130" width="5" height="10" class="fill-primary stroke-primary stroke-width-1" />
  <rect x="60" y="130" width="5" height="10" class="fill-primary stroke-primary stroke-width-1" />
  
  <!-- Wrench -->
  <path d="M80 150 Q85 140, 95 145 L105 135 Q110 130, 115 135 Q120 140, 115 145 L105 155 Q100 160, 90 155 Z" fill="rgba(255, 215, 0, 0.3)" class="stroke-primary stroke-width-2" />
</svg>